<svg width="24" height="17" viewBox="0 0 24 17" fill="none" xmlns="http://www.w3.org/2000/svg">
<path d="M12.9669 3.69524L16.7825 7.17813C16.8874 7.12145 17.0046 7.0914 17.1239 7.09062C17.2711 7.09062 17.415 7.13428 17.5374 7.21607C17.6598 7.29785 17.7552 7.4141 17.8116 7.55011C17.8679 7.68612 17.8826 7.83578 17.8539 7.98016C17.8252 8.12455 17.7543 8.25717 17.6502 8.36127C17.5461 8.46537 17.4135 8.53626 17.2691 8.56498C17.1247 8.5937 16.9751 8.57896 16.839 8.52262C16.703 8.46628 16.5868 8.37088 16.505 8.24848C16.4232 8.12607 16.3796 7.98217 16.3796 7.83495C16.38 7.79073 16.3844 7.74662 16.3925 7.70316L13.6183 5.16553V11.7413H14.3065V7.13276L17.4393 9.54507L20.1336 7.22998L20.6403 7.61457L18.7811 11.6052C18.8691 11.7445 18.9082 11.909 18.8924 12.073C18.8766 12.237 18.8066 12.391 18.6936 12.5108C18.5806 12.6307 18.4309 12.7095 18.2682 12.7349C18.1054 12.7604 17.9388 12.7309 17.7947 12.6512C17.6505 12.5715 17.5369 12.4462 17.4719 12.2948C17.4068 12.1435 17.3939 11.9748 17.4353 11.8154C17.4766 11.6559 17.5698 11.5148 17.7003 11.4141C17.8307 11.3135 17.9908 11.2591 18.1556 11.2595C18.1772 11.2595 18.1988 11.2649 18.2204 11.266L19.4087 8.70783L17.4631 10.3834L14.9568 8.45504V10.6967H16.4757V12.369H15.8275V11.347H14.9633V12.3895H12.9669V3.69524ZM5.72888 15.1183H18.2874V14.4702H5.72672L5.72888 15.1183ZM6.81458 16.1986H17.2038V15.5505H6.81242L6.81458 16.1986ZM24 6.30633C23.9997 6.59877 23.8834 6.87915 23.6766 7.08594C23.4698 7.29273 23.1895 7.40903 22.897 7.40931C22.8383 7.40795 22.7798 7.40217 22.722 7.39203L19.1116 13.9203H4.90461L1.29425 7.39203C1.23643 7.40222 1.17793 7.408 1.11924 7.40931C0.861034 7.41159 0.610124 7.32373 0.409741 7.16088C0.209359 6.99802 0.0720537 6.77038 0.0214855 6.51717C-0.0290828 6.26395 0.0102533 6.00103 0.132715 5.7737C0.255177 5.54638 0.453095 5.36889 0.692365 5.27181C0.931635 5.17474 1.19727 5.16416 1.4435 5.2419C1.68974 5.31964 1.90114 5.48083 2.04129 5.6977C2.18144 5.91457 2.24156 6.17353 2.21129 6.42996C2.18101 6.6864 2.06225 6.92424 1.87545 7.10251L5.28595 13.2689H11.6792V2.74566C11.3822 2.66695 11.1241 2.48288 10.9529 2.2278C10.7817 1.97272 10.7091 1.66406 10.7488 1.35943C10.7885 1.0548 10.9377 0.775021 11.1685 0.572311C11.3994 0.3696 11.6961 0.257813 12.0033 0.257812C12.3105 0.257812 12.6072 0.3696 12.838 0.572311C13.0688 0.775021 13.218 1.0548 13.2577 1.35943C13.2974 1.66406 13.2249 1.97272 13.0537 2.2278C12.8825 2.48288 12.6243 2.66695 12.3274 2.74566V13.2732H18.7206L22.13 7.10683C21.998 6.98097 21.8994 6.82432 21.8429 6.65093C21.7864 6.47755 21.7738 6.29285 21.8062 6.1134C21.8387 5.93394 21.9151 5.76535 22.0288 5.62274C22.1424 5.48012 22.2897 5.36794 22.4574 5.29626C22.6251 5.22458 22.8079 5.19563 22.9895 5.21202C23.1712 5.2284 23.3459 5.28961 23.498 5.39015C23.6502 5.49069 23.775 5.62742 23.8613 5.78807C23.9476 5.94873 23.9926 6.12829 23.9924 6.31065L24 6.30633ZM1.57404 6.30633C1.57404 6.2168 1.5475 6.12929 1.49776 6.05485C1.44802 5.98041 1.37733 5.9224 1.29462 5.88814C1.21191 5.85388 1.1209 5.84491 1.03309 5.86238C0.945286 5.87984 0.864633 5.92296 0.801329 5.98626C0.738025 6.04956 0.694915 6.13022 0.677449 6.21802C0.659984 6.30583 0.668948 6.39684 0.703207 6.47955C0.737467 6.56226 0.795484 6.63295 0.869922 6.68269C0.944359 6.73243 1.03187 6.75897 1.1214 6.75897C1.24033 6.75841 1.35426 6.71106 1.43856 6.62717C1.52286 6.54328 1.57075 6.42957 1.57188 6.31065L1.57404 6.30633ZM12.0097 2.13421C12.1313 2.13421 12.2502 2.09816 12.3512 2.03061C12.4523 1.96307 12.5311 1.86707 12.5776 1.75475C12.6242 1.64243 12.6363 1.51883 12.6126 1.3996C12.5889 1.28036 12.5304 1.17083 12.4444 1.08486C12.3584 0.998898 12.2489 0.940354 12.1297 0.916636C12.0104 0.892919 11.8868 0.905091 11.7745 0.951616C11.6622 0.99814 11.5662 1.07693 11.4986 1.17801C11.4311 1.2791 11.3951 1.39794 11.3951 1.51952C11.3945 1.60042 11.4099 1.68064 11.4404 1.75558C11.4709 1.83051 11.5159 1.89869 11.5728 1.9562C11.6297 2.01371 11.6974 2.05942 11.772 2.09071C11.8466 2.12199 11.9267 2.13825 12.0076 2.13853L12.0097 2.13421ZM23.3529 6.30633C23.3529 6.21676 23.3263 6.1292 23.2765 6.05474C23.2268 5.98028 23.156 5.92226 23.0732 5.88803C22.9904 5.85381 22.8994 5.84491 22.8115 5.86246C22.7237 5.88001 22.6431 5.92323 22.5798 5.98664C22.5165 6.05005 22.4735 6.13081 22.4562 6.21868C22.4388 6.30656 22.4479 6.39761 22.4824 6.4803C22.5168 6.56299 22.575 6.63361 22.6496 6.68321C22.7241 6.73282 22.8118 6.75919 22.9013 6.75897C23.0194 6.75728 23.1321 6.7094 23.2153 6.6256C23.2985 6.5418 23.3456 6.42873 23.3464 6.31065L23.3529 6.30633ZM5.12067 11.9995C5.12067 12.1467 5.16432 12.2906 5.24611 12.413C5.3279 12.5354 5.44415 12.6308 5.58015 12.6872C5.71616 12.7435 5.86582 12.7583 6.01021 12.7295C6.15459 12.7008 6.28722 12.6299 6.39132 12.5258C6.49541 12.4217 6.5663 12.2891 6.59502 12.1447C6.62374 12.0003 6.609 11.8507 6.55267 11.7147C6.49633 11.5787 6.40093 11.4624 6.27852 11.3806C6.15612 11.2988 6.01221 11.2552 5.865 11.2552C5.84231 11.2552 5.82178 11.2606 5.7991 11.2617L4.61077 8.70351L6.56179 10.3791L9.06917 8.45072V10.6923H7.53514V12.3647H8.18332V11.3427H9.04756V12.3895H11.0364V3.69524L7.23266 7.17813C7.12591 7.1228 7.00718 7.09461 6.88696 7.09603C6.73975 7.09603 6.59584 7.13968 6.47343 7.22147C6.35103 7.30326 6.25563 7.4195 6.19929 7.55551C6.14296 7.69152 6.12822 7.84118 6.15694 7.98557C6.18566 8.12995 6.25655 8.26258 6.36064 8.36667C6.46474 8.47077 6.59736 8.54166 6.74175 8.57038C6.88613 8.5991 7.03579 8.58436 7.1718 8.52802C7.30781 8.47169 7.42406 8.37628 7.50585 8.25388C7.58763 8.13148 7.63129 7.98757 7.63129 7.84035C7.63083 7.79613 7.62649 7.75203 7.61832 7.70856L10.3925 5.17093V11.7413H9.70546V7.13276L6.57259 9.54507L3.87941 7.22998L3.37166 7.61457L5.23086 11.6052C5.1546 11.7242 5.1141 11.8625 5.11419 12.0038L5.12067 11.9995Z" fill="white"/>
</svg>
